<svg width="2399" height="168" viewBox="0 0 2399 168" fill="none" xmlns="http://www.w3.org/2000/svg">
<path d="M63.2236 4.82045C95.2001 4.82045 121.344 19.4047 125.614 53.1574L104.471 54.1994L104.366 54.3038C103.325 31.4896 85.8265 21.4886 64.3701 21.4884C49.7881 21.4884 29.7894 26.4885 29.7891 44.7189C29.7891 85.6597 128.114 54.9286 128.114 119.517C128.114 152.332 97.9086 167.646 68.5361 167.646C31.7684 167.646 2.60395 153.061 0 113.475L22.1855 111.495C23.2271 139.518 40.9345 151.082 67.7031 151.082C87.2847 151.082 106.033 142.123 106.033 120.142C106.033 77.5347 7.70801 106.391 7.70801 48.9904C7.70807 18.9881 36.4551 4.82056 63.2236 4.82045ZM1190.32 0.0323648C1191.15 -0.175986 1191.88 0.657947 1191.99 1.49135C1191.99 2.32459 1191.36 3.05321 1190.53 3.15736C1146.68 5.44939 1119.39 35.9731 1119.39 82.8517C1119.39 129.73 1149.39 162.649 1195.74 162.65C1209.38 162.65 1222.71 158.796 1234.27 151.608C1235 151.191 1235.94 151.399 1236.46 152.128C1236.88 152.857 1236.67 153.795 1235.94 154.316C1223.86 161.92 1210.01 165.879 1195.74 165.879V165.776C1147.51 165.775 1116.26 133.272 1116.26 82.8517C1116.26 32.431 1145.32 2.42842 1190.32 0.0323648ZM536.203 144.42C537.036 144.42 537.766 145.15 537.766 145.984V163.797C537.766 164.63 537.036 165.36 536.203 165.36H502.665C501.832 165.36 501.103 164.63 501.103 163.797C501.103 162.964 501.832 162.235 502.665 162.235H534.745V147.546H492.353C491.52 147.546 490.791 146.817 490.791 145.984C490.791 145.15 491.519 144.42 492.353 144.42H536.203ZM218.212 73.2667C219.045 73.2669 219.774 73.9959 219.774 74.8292V163.795C219.774 164.628 219.045 165.357 218.212 165.358H197.797C196.964 165.358 196.235 164.628 196.234 163.795V144.626C196.235 143.793 196.964 143.064 197.797 143.064C198.63 143.064 199.359 143.793 199.359 144.626V162.233H216.649V74.8292C216.649 73.9958 217.379 73.2667 218.212 73.2667ZM315.185 137.855C316.018 137.855 316.747 138.585 316.747 139.418V144.418H405.698C406.531 144.418 407.261 145.147 407.261 145.981V163.795C407.261 164.628 406.531 165.358 405.698 165.358H362.89C362.056 165.358 361.327 164.628 361.327 163.795C361.327 162.962 362.056 162.233 362.89 162.233H404.136V147.543H315.185C314.352 147.543 313.623 146.814 313.623 145.981V139.418C313.623 138.585 314.352 137.855 315.185 137.855ZM780.559 114.624C781.392 114.624 782.121 115.353 782.121 116.187C782.121 117.02 781.392 117.749 780.559 117.749H729.729L712.231 164.211C712.023 164.836 711.398 165.253 710.773 165.253V165.358H688.796C688.796 165.358 687.754 165.149 687.546 164.733C687.338 164.316 687.234 163.794 687.338 163.274L690.254 155.565C690.566 154.731 691.504 154.419 692.233 154.627C693.066 154.94 693.482 155.877 693.17 156.607L691.087 162.128H709.731L727.23 115.666C727.439 115.041 728.064 114.624 728.688 114.624H780.559ZM1904.11 109.631C1904.95 109.527 1905.78 110.151 1905.88 110.985C1906.2 113.276 1906.3 115.673 1906.3 118.173C1906.3 122.653 1905.47 134.216 1897.97 144.634C1889.64 156.093 1876.1 161.927 1857.76 161.927H1819.85C1819.02 161.927 1818.29 161.197 1818.29 160.364C1818.29 159.531 1819.02 158.802 1819.85 158.802H1857.76C1900.99 158.802 1903.18 124.944 1903.18 118.173C1903.18 115.881 1903.07 113.589 1902.76 111.402C1902.76 110.568 1903.28 109.735 1904.11 109.631ZM979.503 97.9591C979.815 97.1257 980.753 96.7091 981.482 97.0216C982.316 97.3342 982.732 98.2719 982.42 99.0011L959.609 158.798H974.087C974.92 158.798 975.649 159.527 975.649 160.36C975.649 161.194 974.92 161.923 974.087 161.923H957.317C957.299 161.919 956.274 161.711 956.067 161.298C955.859 160.881 955.755 160.36 955.859 159.839L979.503 97.9591ZM1055.85 111.398C1056.48 111.398 1057.1 111.815 1057.31 112.44L1073.45 158.798H1094.18C1095.01 158.798 1095.74 159.527 1095.74 160.36C1095.74 161.194 1095.01 161.923 1094.18 161.923H1072.41C1071.79 161.923 1071.16 161.506 1070.95 160.881L1054.81 114.524H1044.91C1044.08 114.523 1043.35 113.793 1043.35 112.96C1043.35 112.127 1044.08 111.398 1044.91 111.398H1055.85ZM1635.18 3.88686C1635.18 3.88686 1636.22 4.09547 1636.43 4.61635L1716 123.272V109.416C1716 108.583 1716.73 107.854 1717.56 107.854C1718.4 107.854 1719.13 108.583 1719.13 109.416V127.751C1719.13 128.584 1718.4 129.314 1717.56 129.314H1717.15C1717.15 129.314 1716.11 129.105 1715.9 128.584L1634.34 7.01186H1616.01V158.795H1632.05V152.336C1632.05 151.503 1632.78 150.774 1633.61 150.774C1634.45 150.774 1635.18 151.503 1635.18 152.336V160.254C1635.18 161.087 1634.45 161.817 1633.61 161.817L1633.72 161.92H1614.55C1613.72 161.92 1612.99 161.191 1612.99 160.358V5.44936C1612.99 4.61596 1613.72 3.88686 1614.55 3.88686H1635.18ZM1736.94 67.4337C1737.77 67.434 1738.5 68.163 1738.5 68.9962V160.254C1738.5 161.087 1737.77 161.816 1736.94 161.817L1736.83 161.92H1716.42C1716.41 161.918 1715.38 161.71 1715.17 161.192L1673.3 98.9992C1672.78 98.27 1672.98 97.3316 1673.71 96.8107C1674.44 96.2898 1675.38 96.4985 1675.9 97.2277L1717.36 158.692H1735.38V68.9962C1735.38 68.1628 1736.11 67.4337 1736.94 67.4337ZM2376.37 87.4347C2377.2 87.4348 2377.93 88.164 2377.93 88.9972V158.795H2395.22V121.292C2395.22 120.459 2395.95 119.73 2396.78 119.73C2397.62 119.73 2398.34 120.459 2398.34 121.292V160.358C2398.34 161.191 2397.62 161.92 2396.78 161.92H2376.37C2375.53 161.92 2374.8 161.191 2374.8 160.358V90.5607H2292.62V160.358C2292.62 161.191 2291.89 161.92 2291.06 161.92H2288.15C2287.31 161.92 2286.58 161.191 2286.58 160.358C2286.58 159.524 2287.31 158.795 2288.15 158.795H2289.5V88.9972C2289.5 88.164 2290.23 87.4348 2291.06 87.4347H2376.37ZM590.886 7.32338C591.719 7.32338 592.448 8.05261 592.448 8.88588V144.418H668.067C668.901 144.418 669.63 145.147 669.63 145.981V160.149C669.63 160.982 668.901 161.711 668.067 161.711C667.234 161.711 666.505 160.982 666.505 160.149V147.543H590.886C590.053 147.543 589.324 146.814 589.324 145.981V10.4484H572.033V119.937C572.033 120.77 571.304 121.499 570.471 121.499C569.638 121.499 568.909 120.77 568.909 119.937V8.88588C568.909 8.05275 569.638 7.32363 570.471 7.32338H590.886ZM2062.12 160.357H2040.14L2023.58 112.957H1964.83L1947.02 160.357H1925.04L1984.21 5.44838H2005.98L2062.12 160.357ZM403.511 7.32338C404.344 7.32338 405.073 8.05261 405.073 8.88588V26.7003C405.073 27.5337 404.344 28.2628 403.511 28.2628H372.472C371.639 28.2627 370.909 27.5336 370.909 26.7003C370.909 25.867 371.639 25.138 372.472 25.1378H401.948V10.4484H296.332V149.002C296.332 149.835 295.604 150.564 294.771 150.565C293.937 150.565 293.208 149.835 293.208 149.002V8.88588C293.208 8.05261 293.937 7.32338 294.771 7.32338H403.511ZM1195.74 16.4923C1220.11 16.4923 1240.84 31.4933 1246.15 52.9533C1246.36 53.7867 1245.84 54.6199 1245 54.8283C1244.17 55.0364 1243.34 54.516 1243.13 53.6828C1238.13 33.5769 1218.65 19.6173 1195.74 19.6173C1155.74 19.6175 1141.57 53.6827 1141.57 82.8517C1141.57 112.021 1155.74 146.086 1195.74 146.086C1206.78 146.086 1217.09 142.753 1225.32 136.607C1226.05 136.086 1226.98 136.19 1227.5 136.919C1228.02 137.648 1227.92 138.586 1227.19 139.107C1218.34 145.774 1207.51 149.211 1195.74 149.211C1153.45 149.211 1138.45 113.479 1138.45 82.8517C1138.45 52.2243 1153.45 16.4925 1195.74 16.4923ZM2197.32 7.9474C2197.63 7.11431 2198.57 6.80237 2199.4 7.21889C2217.32 15.3446 2229.71 29.8247 2235.33 48.8888C2235.44 49.3055 2235.34 49.7221 2235.13 50.1388C2234.92 50.5555 2234.5 50.7641 2234.08 50.8683L2212.73 54.8263C2211.9 55.0347 2211.17 54.5142 2210.96 53.6808C2205.96 33.575 2186.49 19.6154 2163.57 19.6154C2123.57 19.6154 2109.41 53.6807 2109.41 82.8497C2109.41 112.019 2123.57 146.084 2163.57 146.084C2189.4 146.084 2209.09 128.166 2212.73 101.497C2212.84 100.664 2213.57 100.039 2214.5 100.143L2236.06 102.747C2236.08 102.752 2236.9 103.062 2237.11 103.372C2237.31 103.685 2237.42 104.206 2237.42 104.622C2236.17 110.977 2234.19 117.123 2231.59 122.853C2231.17 123.582 2230.34 123.999 2229.5 123.582C2228.77 123.269 2228.36 122.332 2228.77 121.499C2231.06 116.499 2232.94 111.185 2234.08 105.664L2215.75 103.477C2211.38 130.875 2190.65 149.209 2163.78 149.209H2163.47C2121.18 149.209 2106.18 113.477 2106.18 82.8497C2106.18 52.2223 2121.18 16.4905 2163.47 16.4904C2187.32 16.4904 2207.73 30.7624 2213.57 51.4933L2231.79 48.1593C2226.17 30.7622 2214.61 17.532 2198.05 10.0314C2197.21 9.71886 2196.9 8.78081 2197.32 7.9474ZM1406.66 87.4357C1407.49 87.4358 1408.22 88.1648 1408.22 88.9982C1408.22 89.8314 1407.49 90.5606 1406.66 90.5607H1324.79V146.607C1324.79 147.44 1324.06 148.169 1323.23 148.169C1322.39 148.169 1321.66 147.44 1321.66 146.607V88.9982C1321.66 88.1648 1322.39 87.4357 1323.23 87.4357H1406.66ZM1877.87 98.796C1878.6 98.2755 1879.53 98.5884 1880.05 99.3175C1882.87 103.901 1884.22 109.84 1884.22 117.34C1884.22 134.112 1873.28 143.904 1854.22 144.112H1799.02C1798.19 144.112 1797.46 143.383 1797.46 142.55V122.027C1797.46 121.194 1798.19 120.465 1799.02 120.465C1799.85 120.465 1800.58 121.194 1800.58 122.027V140.987H1854.01C1864.01 140.883 1880.99 137.654 1880.99 117.34C1880.99 110.465 1879.74 104.943 1877.35 100.985C1876.93 100.255 1877.14 99.3169 1877.87 98.796ZM1552.05 87.3331C1552.89 87.3331 1553.62 88.0624 1553.62 88.8956C1553.62 89.729 1552.89 90.4581 1552.05 90.4581H1492.79V140.879H1563.51C1564.34 140.879 1565.07 141.609 1565.07 142.443C1565.07 143.276 1564.34 144.005 1563.51 144.005H1491.23C1490.39 144.005 1489.66 143.276 1489.66 142.443V88.8956C1489.66 88.0624 1490.39 87.3332 1491.23 87.3331H1552.05ZM1428.95 3.88686C1429.78 3.88711 1430.51 4.6161 1430.51 5.44936V142.023C1430.51 142.856 1429.78 143.586 1428.95 143.586C1428.11 143.586 1427.38 142.856 1427.38 142.023V7.01186H1424.47C1423.63 7.01175 1422.91 6.2827 1422.91 5.44936C1422.91 4.61602 1423.63 3.88696 1424.47 3.88686H1428.95ZM438.607 35.3488C439.441 35.3488 440.17 36.078 440.17 36.9113V132.336C440.17 133.169 439.441 133.899 438.607 133.899C437.774 133.899 437.045 133.169 437.045 132.336V36.9113C437.045 36.078 437.774 35.3488 438.607 35.3488ZM1579.45 3.78529C1580.28 3.78529 1581.01 4.51439 1581.01 5.34779V23.1613C1581.01 23.9947 1580.28 24.7238 1579.45 24.7238H1519.35C1518.52 24.7238 1517.79 23.9947 1517.79 23.1613C1517.79 22.3279 1518.52 21.5988 1519.35 21.5988H1577.88V6.91029H1472.27V120.566C1472.27 121.399 1471.54 122.128 1470.71 122.128C1469.87 122.128 1469.14 121.399 1469.14 120.566V5.34779C1469.14 4.51453 1469.87 3.78554 1470.71 3.78529H1579.45ZM769.727 7.32338C770.352 7.32338 770.976 7.74032 771.185 8.36537L808.994 112.749C809.306 113.582 808.89 114.416 808.057 114.729H807.536V114.832C806.911 114.832 806.286 114.415 806.078 113.79L768.581 10.4484H748.999L740.562 32.6378C740.25 33.4712 739.312 33.8879 738.583 33.5753C737.75 33.2627 737.333 32.3259 737.646 31.5968L746.499 8.36537C746.707 7.74048 747.332 7.32359 747.957 7.32338H769.727ZM758.895 32.8468C759.728 32.847 760.456 33.576 760.456 34.4093C760.456 35.0343 760.144 35.5555 759.623 35.7638L737.229 97.0187H778.893L773.789 82.2257C773.477 81.3923 773.893 80.5588 774.727 80.2462C775.56 79.934 776.393 80.3505 776.705 81.1837L782.538 98.0597C782.538 98.0597 782.538 99.1019 782.33 99.5187C782.018 99.9353 781.601 100.144 781.08 100.144H734.938C734.921 100.14 733.997 99.9316 733.688 99.5187C733.375 99.102 733.375 98.5805 733.479 98.0597L757.02 33.8878C757.228 33.263 757.853 32.8468 758.478 32.8468H758.895ZM900.136 69.3136C908.592 69.3136 915.447 76.1697 915.447 84.6271C915.447 93.0846 908.592 99.9415 900.136 99.9415C891.68 99.9413 884.825 93.0845 884.825 84.6271C884.825 76.1698 891.68 69.3138 900.136 69.3136ZM1027.42 29.3078C1028.25 29.3078 1028.98 30.0369 1028.98 30.8703C1028.98 31.4952 1028.67 32.0163 1028.15 32.2247L1005.75 93.4796H1017.73C1018.56 93.4798 1019.29 94.2089 1019.29 95.0421C1019.29 95.8755 1018.56 96.6045 1017.73 96.6046H1003.46C1003.46 96.6046 1002.52 96.3963 1002.21 95.9796C1001.9 95.563 1001.9 95.0424 1002 94.5216L1025.54 30.3497C1025.75 29.7248 1026.37 29.308 1027 29.3078H1027.42ZM2291.06 3.88686C2291.89 3.88686 2292.62 4.61596 2292.62 5.44936V69.6212H2374.8V5.44936C2374.8 4.61596 2375.53 3.88686 2376.37 3.88686H2396.78C2397.62 3.88701 2398.34 4.61604 2398.34 5.44936V38.2648C2398.34 39.0979 2397.62 39.8271 2396.78 39.8273C2395.95 39.8273 2395.22 39.098 2395.22 38.2648V7.01186H2377.93V71.1837C2377.93 72.0171 2377.2 72.7462 2376.37 72.7462H2291.06C2290.23 72.7462 2289.5 72.0171 2289.5 71.1837V7.01186H2272.21V94.9357C2272.21 95.7691 2271.48 96.4982 2270.65 96.4982C2269.81 96.498 2269.08 95.769 2269.08 94.9357V5.44936C2269.08 4.61605 2269.81 3.88703 2270.65 3.88686H2291.06ZM1971.08 95.0392H2017.22L1995.04 30.8673H1994.62L1971.08 95.0392ZM315.289 50.8683C316.122 50.8683 316.852 51.5984 316.852 52.4318V73.0578H392.054C392.887 73.0578 393.616 73.7871 393.616 74.6203V92.4347C393.616 93.2681 392.887 93.9972 392.054 93.9972H351.224C350.39 93.9972 349.661 93.2681 349.661 92.4347C349.661 91.6013 350.39 90.8723 351.224 90.8722H390.491V76.1837H315.289C314.456 76.1837 313.727 75.4536 313.727 74.6203V52.4318C313.727 51.5984 314.456 50.8684 315.289 50.8683ZM1850.99 3.99721C1869.43 3.99721 1883.18 8.99728 1892.03 18.8937C1892.55 19.5187 1892.55 20.5613 1891.93 21.0822C1891.3 21.603 1890.26 21.6026 1889.74 20.9777C1881.51 11.7061 1868.49 7.12224 1851.1 7.12221H1780.17V85.5665C1780.17 86.3998 1779.44 87.129 1778.6 87.129C1777.77 87.129 1777.04 86.3998 1777.04 85.5665V5.55971C1777.04 4.72631 1777.77 3.99721 1778.6 3.99721H1850.99ZM459.022 7.22182C459.856 7.22184 460.585 7.95094 460.585 8.78432V83.7902C460.585 84.6236 459.856 85.3527 459.022 85.3527C458.189 85.3527 457.46 84.6236 457.46 83.7902V10.3468H438.607C437.774 10.3468 437.045 9.61771 437.045 8.78432C437.045 7.95094 437.774 7.22184 438.607 7.22182H459.022ZM1323.23 3.88686C1324.06 3.88697 1324.79 4.61602 1324.79 5.44936V69.6212H1378.12C1378.95 69.6215 1379.68 70.3506 1379.68 71.1837C1379.68 72.017 1378.95 72.7459 1378.12 72.7462H1323.23C1322.39 72.7462 1321.66 72.0171 1321.66 71.1837V7.01186H1304.37V82.5392C1304.37 83.3725 1303.64 84.1017 1302.81 84.1017C1301.98 84.1017 1301.25 83.3725 1301.25 82.5392V5.44936C1301.25 4.61596 1301.98 3.88686 1302.81 3.88686H1323.23ZM1867.87 26.1867C1868.28 25.4575 1869.22 25.1444 1869.95 25.6652C1876.51 29.4155 1879.64 36.2916 1879.64 46.7091C1879.64 70.1483 1860.58 72.8566 1846.31 72.8566V72.7531H1799.12C1798.29 72.7531 1797.56 72.023 1797.56 71.1896V68.8986C1797.56 68.0652 1798.29 67.3351 1799.12 67.3351C1799.96 67.3354 1800.68 68.0653 1800.68 68.8986V69.6271H1846.31C1867.24 69.6271 1876.51 62.5434 1876.51 46.6046C1876.51 37.4372 1873.8 31.3949 1868.39 28.2697C1867.66 27.8529 1867.35 26.9158 1867.87 26.1867ZM1038.25 3.78529C1038.87 3.78529 1039.5 4.20134 1039.71 4.82631L1060.54 62.4357C1060.85 63.2691 1060.43 64.1027 1059.6 64.4152H1059.08V64.5187C1058.46 64.5187 1057.83 64.1025 1057.62 63.4777L1037.1 6.91029H1016.48C1015.65 6.91029 1014.92 6.18108 1014.92 5.34779C1014.92 4.51439 1015.65 3.78529 1016.48 3.78529H1038.25ZM215.399 7.32338C216.233 7.32338 216.962 8.05261 216.962 8.88588C216.962 9.71928 216.233 10.4484 215.399 10.4484H152.696V25.1378H197.692C198.526 25.1378 199.255 25.8669 199.255 26.7003C199.255 27.5337 198.526 28.2628 197.692 28.2628H151.238C150.405 28.2628 149.676 27.5337 149.676 26.7003V8.88588C149.676 8.05261 150.405 7.32338 151.238 7.32338H215.399Z" fill="#131718"/>
</svg>
